# xmcd CD database file
#
# Track frame offsets:
#	150
#	23090
#	42895
#	73130
#	92600
#	114510
#	137093
#	160488
#	167878
#	170583
#	190288
#	212575
#
# Disc length: 3020 seconds
#
# Revision: 0
# Processed by: cddbd v1.5.1PL2 Copyright (c) Steve Scherf et al.
# Submitted via: CDex 1.51
#
DISCID=a70bca0c
DTITLE=緒方恵美 - LIVE multipheno CONCERT TOUR 1996 WINTER Disc One
DYEAR=1997
DGENRE=Anime
TTITLE0=OVERTURE〜紅い河
TTITLE1=運命の航路
TTITLE2=MC
TTITLE3=ワインレッドの心
TTITLE4=RUN
TTITLE5=闇の夢
TTITLE6=落葉の手紙
TTITLE7=SUMMER TIME
TTITLE8=MC
TTITLE9=カミング・アウト
TTITLE10=lost paradise (duet with 高橋洋子)
TTITLE11=MC
EXTD=YEAR: 1997
EXTT0=
EXTT1=
EXTT2=
EXTT3=
EXTT4=
EXTT5=
EXTT6=
EXTT7=
EXTT8=
EXTT9=
EXTT10=
EXTT11=
PLAYORDER=
